<svg id="Icons" version="1.1" viewBox="0 0 32 32" xml:space="preserve" xmlns="http://www.w3.org/2000/svg" enable-background="new 0 0 32 32"><path d="M3 11h26" fill="none" stroke="#2d608b" stroke-width="2" stroke-linecap="round" stroke-linejoin="round" stroke-miterlimit="10" class="stroke-000000"></path><path d="M7 9c-.3 0-.5-.1-.7-.3-.2-.2-.3-.4-.3-.7 0-.3.1-.5.3-.7l.1-.1c.1 0 .1-.1.2-.1.1-.1.1-.1.2-.1h.4c.1 0 .1 0 .2.1.1 0 .1.1.2.1l.1.1c.1.1.2.2.2.3.1.1.1.3.1.4 0 .1 0 .3-.1.4 0 .1-.1.2-.2.3-.2.2-.4.3-.7.3zM10 9c-.3 0-.5-.1-.7-.3-.2-.2-.3-.4-.3-.7 0-.1 0-.3.1-.4.1-.1.1-.2.2-.3.1-.1.2-.2.3-.2.4-.2.8-.1 1.1.2.1.1.2.2.2.3.1.1.1.3.1.4 0 .3-.1.5-.3.7-.2.2-.4.3-.7.3zM13 9c-.1 0-.3 0-.4-.1-.1-.1-.2-.1-.3-.2-.1-.1-.2-.2-.2-.3-.1-.1-.1-.3-.1-.4 0-.1 0-.3.1-.4.1-.1.1-.2.2-.3.4-.4 1-.4 1.4 0 .1.1.2.2.2.3.1.1.1.3.1.4 0 .1 0 .3-.1.4-.1.1-.1.2-.2.3-.2.2-.4.3-.7.3z" fill="#2d608b" class="fill-000000"></path><path d="M11 15h10M11 31h10M12 15h0c0 3.1 1.5 6.1 4 8h0c2.5-1.9 4-4.9 4-8v0M20 31h0c0-3.1-1.5-6.1-4-8h0c-2.5 1.9-4 4.9-4 8v0" fill="none" stroke="#2d608b" stroke-width="2" stroke-linecap="round" stroke-linejoin="round" stroke-miterlimit="10" class="stroke-000000"></path><path d="M19.2 27H27c1.1 0 2-.9 2-2V7c0-1.1-.9-2-2-2H5c-1.1 0-2 .9-2 2v18c0 1.1.9 2 2 2h7.8" fill="none" stroke="#2d608b" stroke-width="2" stroke-linecap="round" stroke-linejoin="round" stroke-miterlimit="10" class="stroke-000000"></path></svg>