<?xml version="1.0" ?><!DOCTYPE svg  PUBLIC '-//W3C//DTD SVG 1.1//EN'  'http://www.w3.org/Graphics/SVG/1.1/DTD/svg11.dtd'><svg enable-background="new 0 0 128 128" height="128px" id="Layer_1" version="1.1" viewBox="0 0 128 128" width="128px" xml:space="preserve" xmlns="http://www.w3.org/2000/svg" xmlns:xlink="http://www.w3.org/1999/xlink"><g><circle cx="64" cy="64" fill="#408C7E" r="64"/><path d="M104.352,42.729v18.354L74.992,29.305l-7.943,11.398l8.98,11.053l-6.563,6.563l-18.436,3.326L33.497,48.759   L44.929,69.4l-0.678,3.079l-15.888-0.345l-4.146,26.25l-2.643,1.441l25.956,26.024C52.787,127.246,58.304,128,64,128   c34.549,0,62.686-27.379,63.94-61.621L104.352,42.729z" fill="#317260"/><path d="M78.207,34.388c0,3.796-3.076,6.875-6.873,6.875c-3.795,0-6.872-3.079-6.872-6.875   c0-3.793,3.077-6.87,6.872-6.87C75.131,27.518,78.207,30.595,78.207,34.388z" fill="#EEF1F4"/><path d="M98.344,64.893l-9.838-18.68c-1.408-2.672-4.316-3.925-7.051-3.313c-1.172-0.409-2.516-0.109-3.412,0.889   l-10.49,11.707l-13.838,2.31c-1.768,0.293-2.967,2.013-2.684,3.84c0.258,1.647,1.635,2.818,3.193,2.818   c0.172,0,0.348-0.014,0.52-0.045l14.942-2.49c0.713-0.117,1.369-0.481,1.859-1.03l6.262-6.988l7.391,14.031H71.879   c-0.971,0-1.889,0.448-2.502,1.224c-0.619,0.775-0.863,1.798-0.674,2.778l4.557,23.646c0.307,1.594,1.658,2.696,3.174,2.696   c0.209,0,0.42-0.023,0.635-0.067c1.756-0.36,2.893-2.122,2.541-3.937l-3.783-19.643h15.492c0.443,0.097,0.893,0.162,1.346,0.162   c0.508,0,1.016-0.065,1.518-0.193c0.689-0.063,1.313-0.349,1.807-0.79C98.941,71.974,100.01,68.051,98.344,64.893z" fill="#EEF1F4"/><g><path d="M65.645,100.483l-4.983-26.228H29.809l-3.729,26.141l-3.745-0.534l3.96-27.767    c0.132-0.932,0.931-1.624,1.873-1.624h34.06c0.908,0,1.688,0.646,1.859,1.538l5.276,27.767L65.645,100.483z" fill="#E5C322"/></g><g><path d="M104.404,82.12H81.438c-0.695,0-1.262-0.564-1.262-1.262c0-0.696,0.566-1.261,1.262-1.261h21.705V45.217    c0-0.696,0.564-1.261,1.262-1.261c0.695,0,1.262,0.564,1.262,1.261v35.642C105.666,81.556,105.1,82.12,104.404,82.12z" fill="#E5C322"/></g><g><path d="M92.922,99.545c-0.695,0-1.26-0.564-1.26-1.261V82.176c0-0.697,0.564-1.261,1.26-1.261    c0.699,0,1.264,0.563,1.264,1.261v16.108C94.186,98.98,93.621,99.545,92.922,99.545z" fill="#E5C322"/></g><g><path d="M100.973,99.545H84.34c-0.697,0-1.262-0.564-1.262-1.261s0.564-1.261,1.262-1.261h16.633    c0.699,0,1.262,0.564,1.262,1.261S101.672,99.545,100.973,99.545z" fill="#E5C322"/></g><g><path d="M60.529,69.4h-15.6c-0.391,0-0.75-0.217-0.932-0.563l-10.5-20.078c-0.269-0.514-0.069-1.149,0.446-1.417    c0.511-0.271,1.148-0.071,1.416,0.443l10.207,19.514h14.963c0.58,0,1.051,0.471,1.051,1.051C61.58,68.931,61.109,69.4,60.529,69.4    z" fill="#253949"/></g></g></svg>